<svg width="270" height="170" viewBox="0 0 182 103" fill="none" xmlns="http://www.w3.org/2000/svg">
<g id="Group 823">
<path id="Ellipse 176 (Stroke)" fill-rule="evenodd" clip-rule="evenodd" d="M27.3604 27.8604C44.2387 10.9821 67.1305 1.5 91 1.5C114.869 1.5 137.761 10.9821 154.64 27.8604C171.518 44.7387 181 67.6305 181 91.5C181 97.0229 176.523 101.5 171 101.5C165.477 101.5 161 97.0229 161 91.5C161 72.9348 153.625 55.1301 140.497 42.0025C127.37 28.875 109.565 21.5 91 21.5C72.4349 21.5 54.6301 28.875 41.5025 42.0025C28.375 55.1301 21 72.9348 21 91.5C21 97.0228 16.5228 101.5 11 101.5C5.47715 101.5 0.999999 97.0228 1 91.5C1 67.6305 10.4821 44.7387 27.3604 27.8604Z" fill="#44A9F1" fill-opacity="0.2" stroke="#44A9F1" stroke-width="2" stroke-linecap="round"/>
<path id="Ellipse 178 (Stroke)" fill-rule="evenodd" clip-rule="evenodd" d="M117.755 5.56833C104.284 1.37424 90.015 0.406134 76.1007 2.74213C62.1863 5.07813 49.016 10.6528 37.6528 19.0162C26.2897 27.3796 17.052 38.2974 10.6854 50.8884C4.31883 63.4794 1.00166 77.3909 1.00166 91.5C1.00166 97.0229 5.47882 101.5 11.0017 101.5C16.5245 101.5 21.0017 97.0229 21.0017 91.5C21.0017 80.5262 23.5817 69.7062 28.5335 59.9132C33.4853 50.1202 40.6702 41.6286 49.5081 35.1237C58.3461 28.6188 68.5897 24.283 79.412 22.4661C90.2343 20.6492 101.332 21.4022 111.81 24.6643C117.083 26.306 122.689 23.3621 124.33 18.0889C125.972 12.8157 123.028 7.21005 117.755 5.56833Z" fill="#44A9F1"/>
</g>
</svg>
