<svg xmlns="http://www.w3.org/2000/svg" width="20" height="21" viewBox="0 0 20 21" fill="none">
  <path d="M2.5 5.5H4.16667H17.5" stroke="#5C5D76" stroke-width="1.5" stroke-linecap="round" stroke-linejoin="round"/>
  <path d="M6.66669 5.50008V3.83341C6.66669 3.39139 6.84228 2.96746 7.15484 2.6549C7.4674 2.34234 7.89133 2.16675 8.33335 2.16675H11.6667C12.1087 2.16675 12.5326 2.34234 12.8452 2.6549C13.1578 2.96746 13.3334 3.39139 13.3334 3.83341V5.50008M15.8334 5.50008V17.1667C15.8334 17.6088 15.6578 18.0327 15.3452 18.3453C15.0326 18.6578 14.6087 18.8334 14.1667 18.8334H5.83335C5.39133 18.8334 4.9674 18.6578 4.65484 18.3453C4.34228 18.0327 4.16669 17.6088 4.16669 17.1667V5.50008H15.8334Z" stroke="#5C5D76" stroke-width="1.5" stroke-linecap="round" stroke-linejoin="round"/>
</svg>