<svg width="27" height="27" viewBox="0 0 27 27" fill="none" xmlns="http://www.w3.org/2000/svg">
<g id="Feather Icons">
<path id="Vector" d="M17.618 23.6238V21.4216C17.618 20.2534 17.1539 19.1331 16.3279 18.3071C15.5019 17.4811 14.3816 17.0171 13.2135 17.0171H5.50563C4.33749 17.0171 3.21718 17.4811 2.39118 18.3071C1.56518 19.1331 1.10114 20.2534 1.10114 21.4216V23.6238" stroke="#FFAB00" stroke-width="1.26629" stroke-linecap="round" stroke-linejoin="round"/>
<path id="Vector_2" d="M9.35954 12.6122C11.7921 12.6122 13.764 10.6403 13.764 8.20772C13.764 5.77518 11.7921 3.80322 9.35954 3.80322C6.92701 3.80322 4.95505 5.77518 4.95505 8.20772C4.95505 10.6403 6.92701 12.6122 9.35954 12.6122Z" stroke="#FFAB00" stroke-width="1.26629" stroke-linecap="round" stroke-linejoin="round"/>
<path id="Vector_3" d="M25.3258 12.6123H17.618" stroke="#FFAB00" stroke-width="1.26629" stroke-linecap="round" stroke-linejoin="round"/>
<path id="Vector_4" d="M22.0225 15.9155L25.3258 12.6122L22.0225 9.30879" stroke="#FFAB00" stroke-width="1.26629" stroke-linecap="round" stroke-linejoin="round"/>
</g>
</svg>
