<svg width="270" height="170" viewBox="0 0 182 103" fill="none" xmlns="http://www.w3.org/2000/svg">
<g id="Group 824">
<path id="Ellipse 175 (Stroke)" fill-rule="evenodd" clip-rule="evenodd" d="M27.3604 27.8604C44.2387 10.9821 67.1305 1.5 91 1.5C114.869 1.5 137.761 10.9821 154.64 27.8604C171.518 44.7387 181 67.6305 181 91.5C181 97.0229 176.523 101.5 171 101.5C165.477 101.5 161 97.0229 161 91.5C161 72.9348 153.625 55.1301 140.497 42.0025C127.37 28.875 109.565 21.5 91 21.5C72.4349 21.5 54.6301 28.875 41.5025 42.0025C28.375 55.1301 21 72.9348 21 91.5C21 97.0228 16.5228 101.5 11 101.5C5.47715 101.5 0.999999 97.0228 1 91.5C1 67.6305 10.4821 44.7387 27.3604 27.8604Z" fill="#FF852D" fill-opacity="0.2" stroke="#FF834D" stroke-width="2" stroke-linecap="round"/>
<path id="Ellipse 177 (Stroke)" fill-rule="evenodd" clip-rule="evenodd" d="M108.56 3.22937C91.1016 -0.243305 73.0056 1.539 56.5603 8.35088C40.1149 15.1628 26.0588 26.6983 16.1695 41.4987C6.28018 56.2991 1.00177 73.6997 1.00177 91.5C1.00177 97.0229 5.47893 101.5 11.0018 101.5C16.5246 101.5 21.0018 97.0229 21.0018 91.5C21.0018 77.6553 25.1072 64.1216 32.7989 52.6101C40.4906 41.0987 51.4231 32.1266 64.2139 26.8285C77.0048 21.5303 91.0794 20.1441 104.658 22.8451C118.237 25.546 130.71 32.2129 140.499 42.0026C144.404 45.9078 150.736 45.9078 154.641 42.0026C158.547 38.0973 158.547 31.7657 154.641 27.8604C142.055 15.2737 126.018 6.70204 108.56 3.22937Z" fill="#FF834D"/>
</g>
</svg>
