<svg width="20" height="21" viewBox="0 0 20 21" fill="none" xmlns="http://www.w3.org/2000/svg">
<g id="Custom Icons">
<path id="Vector" d="M15.2291 17.1837L14.321 8.95663L16.787 6.46204C18.1615 5.08747 18.6197 3.25471 18.1615 2.33833C17.2452 1.88014 15.4124 2.33833 14.0378 3.7129L11.2346 6.18712L3.31617 5.27074C2.85798 5.1791 2.49143 5.36238 2.30815 5.72893L2.03324 6.18712C1.84996 6.64531 1.9416 7.1035 2.30815 7.37842L7.53088 10.1912L5.33221 13.3349H2.58307L1.66669 14.2513L4.41583 16.084L6.24859 18.8332L7.16497 17.9168V15.1676L10.3087 12.969L13.1214 18.1917C13.3964 18.5583 13.8545 18.6499 14.3127 18.4666L14.7709 18.2833C15.1375 18.0084 15.3208 17.6419 15.2291 17.1837Z" stroke="white" stroke-width="1.25" stroke-linecap="round" stroke-linejoin="round"/>
</g>
</svg>
